# xmcd
#
# Track frame offsets:
#	150
#	23614
#	35076
#	51090
#	63324
#	77860
#	93122
#	107786
#	118547
#	131546
#	152041
#	164846
#	183508
#	195758
#	205324
#	224434
#
# Disc length: 3133
#
# Revision: 1
# Processed by: cddbd v1.5.1PL0 Copyright (c) Steve Scherf et al.
# Submitted via: CDex 1.51
# Normalized: r0:DSETVAR1,TDELIM( - )
#
DISCID=db0c3b10
DTITLE=Various Artist - Very Best Of Country
DYEAR=1999
DGENRE=Country
TTITLE0=Dr.Hook - When You're In Love With A Beautiful Woman
TTITLE1=Crystal Gayle - Don't It Make My Brown Eyes Blue
TTITLE2=Billie Jo Spears - Blanket On The Ground
TTITLE3=Johnny Cash - I Walk The Line
TTITLE4=Jeannie C. Riley - Harper Valley P.T.A.
TTITLE5=Nitty Gritty Dirt Band - Jambalaya (On The Bayou)
TTITLE6=Glen Campbell - Rhinestone Cowboy
TTITLE7=Slim Whitman - Rose Marie
TTITLE8=Little River Band - Down On The Border
TTITLE9=Pussycat - Mississippi
TTITLE10=Willie Nelson - Crazy
TTITLE11=Juice Newton - Angel Of The Morning
TTITLE12=Merle Haggard - Okie From Muskogee
TTITLE13=George Jones - The Race Is On
TTITLE14=Bobbie Gentry - Ode To Billie Joe
TTITLE15=Faron Young - Hello Walls
EXTD=YEAR: 1999
EXTT0=
EXTT1=
EXTT2=
EXTT3=
EXTT4=
EXTT5=
EXTT6=
EXTT7=
EXTT8=
EXTT9=
EXTT10=
EXTT11=
EXTT12=
EXTT13=
EXTT14=
EXTT15=
PLAYORDER=
